<?xml version="1.0" encoding="utf-8"?>
<!-- Generator: Adobe Illustrator 23.0.6, SVG Export Plug-In . SVG Version: 6.00 Build 0)  -->
<svg version="1.1" id="Layer_1" xmlns="http://www.w3.org/2000/svg" xmlns:xlink="http://www.w3.org/1999/xlink" x="0px" y="0px"
	 viewBox="0 0 864 864" enable-background="new 0 0 864 864" xml:space="preserve">
<path d="M686.32,840.8866c-23.4526-5.8541-47.0947-11.1621-68.558-22.7023c-9.6258-5.1741-19.1755-10.6624-29.3477-14.7219
	c-9.564-3.817-19.6046-5.5684-29.8452-6.0654l0.312-2.0162l-4.9952-1.1337c4.3107-15.2557,14.5375-49.0568,24.1282-62.8183
	c8.6948-12.4763,15.818-19.1979,19.3857-22.1585l7.305,2.9808l2.6876-7.0603l-7.4999-3.5751l2.8909-53.4827l5.2922,0.803
	l0.5466-8.7913l-55.2072-4.9194l-2.4511,3.6766c21.0293-41.7342,57.4775-95.5861,57.4775-95.5861l32.8665,17.9127l-0.056-0.3043
	l11.782,6.8863l17.3547-13.574l-2.1409-16.216l-13.4828,0.9566l6.5592,5.3293l-7.1514,12.0709l-15.243-8.0901l-1.6895-9.1931
	c0,0-6.9628-32.8383-12.7026-80.392c-5.6934-47.1739-7.5154-81.2081-7.5443-81.7503l0.0103,0.0023l11.4332-16.5165l8.6089,1.2298
	l-2.8697,7.7891l9.429-1.2299l-0.41-12.7085l-10.2489-3.6896l-20.4977,5.7394l-7.4185,16.7076
	c-0.1281,0.1858-23.175,33.6406-40.3452,50.8117c-17.2181,17.2177-48.3746,38.5357-48.3746,38.5357l3.2928-137.7264l17.7556-91.4927
	l16.6678-0.3521l-4.5355-10.489c0,0-15.1428-28.0468-28.2609-72.3205c-11.9847-40.4471-26.1208-89.0279-28.476-97.1277
	l3.4951-24.7644l8.1535-3.0149l1.1844,8.215l7.698-5.568L506.8624,18l-10.7498,1.6316l-15.305,14.8035l3.7589,19.5883
	l-0.1685,0.0234c0,0-3.3443,32.4251-14.8226,70.9585c-11.4788,38.5357-41.8173,110.6877-41.8173,110.6877l23.7596-0.5698
	l9.2818,83.4667l-25.2827,38.036c0,0-41.3748-66.818-60.2314-110.2732c-17.6884-40.7602-38.8918-93.606-41.4538-100.0042
	l0.1212-0.0437l-3.0018-22.3744l7.238-4.8238l3.0518,7.7208l6.2085-7.2016l-8.7776-9.2012l-10.0985,4.0813l-11.4559,17.9424
	l6.7242,16.7318l-0.0247,0.0088c0,0-18.2238,100.4434-30.5224,144.7184c-10.1163,36.4186-42.4211,130.527-53.5679,162.7802
	l-17.1448,2.8041l-2.8834-13.7061l7.9167-2.938l-12.4763-5.2246l-7.2151,14.6536l12.1072,18.4206l15.9861-3.3031
	c-0.076,0.2181-0.1162,0.334-0.1162,0.334l12.9234-2.9803l1.188-0.2455l0.0125-0.0314l23.3036-5.3741
	c0,0,24.3766,63.4856,39.8892,117.976l-65.8289,6.8629l-0.1686,5.9671l14.0815-1.528l-11.0035,46.5565l-7.765,0.2032l-0.1823,5.9215
	l85.1053,2.2589c0.7741,4.9051,1.5582,9.9952,2.3449,15.2036l-56.8221,26.7214l-40.5354,6.3771l4.2636,9.6111l17.3255-1.9971
	c0.5411,6.4504,1.9064,19.9132,4.4453,28.7093c1.472,5.1133,3.7029,11.0001,6.0412,16.6103l-8.7765,1.0893l8.8459,7.2881
	l3.3698-0.4522c1.9242,4.2769,3.7,7.996,4.9386,10.5251c2.863,5.8472,13.3678,28.2652,16.7784,35.5512
	c-1.2163-1.1185-3.4012-1.1687-4.8442-0.7834v0.072c-9.2412,2.5057-17.5678,7.1797-26.0607,11.4605
	c-4.038,2.0356-8.1449,3.9465-12.4781,5.2647c-4.4771,1.3615-9.1794,1.7514-13.8045,2.3268
	c-8.9084,1.1086-17.8381,2.1326-26.6161,4.0621c-9.4926,2.0867-18.6515,5.5663-27.2205,10.1382
	c-1.6689,0.8904-3.706,2.9622-2.2324,4.944c1.397,1.8794,4.6079,1.7259,6.4622,0.7361c8.0761-4.3096,16.497-7.4102,25.4349-9.3748
	c8.435-1.8539,17.0696-2.677,25.6262-3.757c4.7478-0.599,9.5064-1.1525,14.1166-2.483c4.6972-1.3552,9.2107-3.363,13.5931-5.5071
	c8.1899-4.0062,16.0821-8.8149,24.9453-11.2177c1.224-0.3321,2.7533-1.1891,3.5027-2.3856l57.9963-15.185l-0.049-0.2826
	l75.8814-5.9246l75.6075,6.0492l-0.0073,0.0213l51.2148,14.3578c0.2658,0.9144,1.8776,1.3183,2.881,1.3517l-0.0275,0.051
	c0.8922,0.0347,1.7801,0.0858,2.6658,0.1447l1.4337,0.4019l0.0453-0.2932c8.5463,0.7039,16.7991,2.5709,24.7979,5.8804
	c10.0539,4.1602,19.4838,9.7096,29.0757,14.7975c21.4935,11.4008,45.4157,16.5868,68.8314,22.4308
	c2.1371,0.5339,5.0779-0.4131,6.72-1.8006C688.756,842.7054,688.1734,841.3489,686.32,840.8866z M376.6264,485.2768l19.3662,3.4583
	l-1.8389,20.6878l-19.0519-3.7174L376.6264,485.2768z M345.1583,292.0663l12.5719,2.0954l1.4596,16.7859l-14.0315-3.8267V292.0663z
	 M331.4932,289.7888l10.3854,1.731v14.7067l-12.5544-3.4239L331.4932,289.7888z M270.8549,634.3932l-12.5125,0.3274l8.0496-46.8984
	l9.4529-1.0258L270.8549,634.3932z M276.3008,634.2507l4.011-47.939l9.748-1.0578l2.9583,48.5593L276.3008,634.2507z
	 M305.8923,633.3666l-8.3729,0.3288l-3.5943-48.8609l11.9672-1.2986l-0.2635,37.884L305.8923,633.3666z M310.0839,633.0379
	l0.1162-4.5834l0.3268-12.8946l0.8268-32.619l3.4077-0.3674c3.7857,13.6039,6.925,26.4716,8.8683,37.4142
	c0.7013,3.9556,1.4233,8.1901,2.1594,12.642L310.0839,633.0379z M322.7474,342.2629l6.0348-36.2087l13.0964,3.5717v33.6999
	L322.7474,342.2629z M270.6392,743.7909c-8.2461-17.9833-8.7289-26.3683-8.7289-26.3683l-2.7853-18.7787l11.1711-1.2877l64.1-7.3973
	c2.2219,15.6456,4.3513,31.2168,6.2183,45.1473L270.6392,743.7909z M296.5282,796.4127
	c-1.6489-3.7657-8.3807-18.8138-20.1976-41.1309c-0.6682-1.2611-1.2964-2.4791-1.9043-3.6741l19.2392-2.5816l11.1463,44.6932
	L296.5282,796.4127z M319.7628,788.8579l-7.3827-42.2617l-3.4891,0.501l5.5799,43.4096h0.2204l-6.4689,2.1035l-10.4568-44.1345
	l22.8778-3.0699l3.5981,41.548l2.9545-0.5129L319.7628,788.8579z M329.4382,785.712l-6.2283-40.6505l6.5788-0.8828l5.5816,39.6043
	L329.4382,785.712z M340.7375,782.0379l-7.0364-38.3841l7.9125-1.0618c2.1959,16.5166,3.9369,30.0446,4.8964,37.569
	L340.7375,782.0379z M345.1583,343.508v-32.9876l14.3343,3.9092l2.6105,30.0197L345.1583,343.508z M350.0777,480.5359
	l23.3033,4.1613l-1.5207,20.3758l-20.4715-3.9944L350.0777,480.5359z M354.9972,557.6073l-3.3923-53.1453l20.0097,3.9043
	l-3.8112,51.0704L354.9972,557.6073z M374.856,508.9988l19.0058,3.7084l-4.4284,49.8196l-18.376-2.6252L374.856,508.9988z
	 M445.6758,772.7194l-25.5214-1.0292l-26.2927,4.1408l-11.4022-85.8721l75.3899-8.3985L445.6758,772.7194z M599.6507,647.6577
	l-5.2402,50.9739l3.0084,1.805l-16.8675-8.0405l12.2695-45.7748L599.6507,647.6577z M589.2023,646.0724l-13.1586,44.1751
	l-10.9226-5.2066l9.2062-41.2255L589.2023,646.0724z M569.5143,643.0851l-11.6947,38.4752l-10.004-4.7687l6.6926-35.007
	l-1.1509-1.1509L569.5143,643.0851z M582.9317,521.5314l-18.2485-8.6898l12.8821-23.0523l15.0566,10.4237L582.9317,521.5314z
	 M604.7959,473.4301l-10.795,23.7489l-14.8285-10.2658l11.7604-21.0449L604.7959,473.4301z M580.7454,460.3115l7.3083,3.9864
	l-11.59,20.74l-13.1086-9.0751L580.7454,460.3115z M560.85,478.2173l14.0065,9.6967l-13.1406,23.5146l-24.699-11.7614
	L560.85,478.2173z M544.3474,652.8329c1.7726-4.0243,3.7861-8.2706,5.9774-12.6594l1.7761,0.2695l-8.9277,34.1355l-6.1107-2.9128
	l-0.4531,0.2813C539.2668,664.9343,541.8721,658.454,544.3474,652.8329z M532.5938,682.8256l61.4344,25.0688
	c-5.8052,3.9426-14.5596,10.3867-19.7068,16.5634c-3.3541,4.0249-8.2853,17.2662-12.9422,31.5092l-47.3198-17.1599l-0.5378,1.3983
	C519.1693,722.119,525.9221,701.3362,532.5938,682.8256z M497.4723,176.3801l13.3075,1.9011l-0.808,18.5845h-13.0248
	L497.4723,176.3801z M492.8534,228.5689h-10.4971l-1.137-28.4235h12.363L492.8534,228.5689z M493.6664,196.8657h-12.5783
	l-0.9182-22.9573l14.0339,2.0049L493.6664,196.8657z M496.1339,228.5689l0.7289-28.4235h12.9663l-1.2359,28.4235H496.1339z
	 M501.0775,782.2623l-1.478,4.2601c0.5444-1.9001,5.3543-18.6364,12.1021-40.4601l4.1681,1.658l-5.2807,36.7006L501.0775,782.2623z
	 M513.3694,785.0519l6.1153-35.8936l7.9429,3.1596l-7.5643,34.2078L513.3694,785.0519z M525.2985,787.7592l4.7806-34.3865
	l12.6304,5.0242l-7.879,31.4723l0.3751,0.1384L525.2985,787.7592z M538.761,790.8146l6.9835-31.2103l6.7101,2.6692l-8.2164,29.7842
	L538.761,790.8146z M550.1112,793.3904l-3.8002-0.8624l8.578-29.2862l3.6984,1.4711
	C555.0448,776.0582,551.9127,786.978,550.1112,793.3904z"/>
</svg>
